<svg xmlns="http://www.w3.org/2000/svg" viewBox="0 0 512 512">
  <defs>
    <linearGradient id="g" x1="0" y1="0" x2="1" y2="1">
      <stop offset="0" stop-color="#4ade80"/>
      <stop offset="1" stop-color="#047857"/>
    </linearGradient>
  </defs>
  <rect width="512" height="512" rx="112" fill="url(#g)"/>
  <g fill="none" stroke="white" stroke-width="28" stroke-linecap="round" stroke-linejoin="round" transform="translate(106,96) scale(1.17)">
    <path d="M17 8a5 5 0 0 1 2 9.9V18a4 4 0 0 1-4 4H5a4 4 0 0 1-4-4v-.1A5 5 0 0 1 3 8a5 5 0 0 1 5-4 5 5 0 0 1 4.5 3A5 5 0 0 1 17 8Z"/>
    <path d="M4 22v-3h16v3a6 6 0 0 1-6 6H10a6 6 0 0 1-6-6Z"/>
  </g>
</svg>
